# xmcd CD database file
#
# Track frame offsets:
#	150
#	17490
#	36160
#	54147
#	74005
#	93065
#	112185
#	130150
#	147620
#	167625
#
# Disc length: 2568 seconds
#
# Revision: 0
# Processed by: cddbd v1.5.1PL2 Copyright (c) Steve Scherf et al.
# Submitted via: CDex 1.51
#
DISCID=870a060a
DTITLE=Various Artist - 特撮＆TVアニメ ヒーロー☆ソングス！ DISC 2
DYEAR=2003
DGENRE=Anime
TTITLE0=高取ヒデアキ - Transformers 〜鋼鉄の勇気〜
TTITLE1=サイキックラバー - Don't Give Up!!
TTITLE2=サイキックラバー - TRANSFORMER -Dream Again-
TTITLE3=サイキックラバー - Never Ending Road
TTITLE4=遠藤正明 - 爆闘宣言！ダイガンダー
TTITLE5=きただにひろし - We are the Heroes
TTITLE6=高取ヒデアキ - ボーイズ・アンド・ガールズ！
TTITLE7=堀江美都子 - Birthday Smile
TTITLE8=COOL - 超時空的DNA
TTITLE9=COOL - ALIVE 〜the way to there〜
EXTD=YEAR: 2003
EXTT0=
EXTT1=
EXTT2=
EXTT3=
EXTT4=
EXTT5=
EXTT6=
EXTT7=
EXTT8=
EXTT9=
PLAYORDER=
